<?xml version="1.0" ?><svg xmlns="http://www.w3.org/2000/svg" xmlns:xlink="http://www.w3.org/1999/xlink" version="1.1" viewBox="0 0 512 512" style="enable-background:new 0 0 512 512;" xml:space="preserve"><g id="_x30_5_x2C___online_learning_x2C__elearning_x2C_graduation_cap_x2C__education_x2C__school_x2C__monitor"><g id="XMLID_690_"><path id="XMLID_142_" style="fill:#313A6B;" d="M321,461c-23.062,0-46.894,10-70.671,10c-19.979,0-39.919-10-59.329-10    c19.21-19.21,30-45.26,30-72.43V381c10.936,0,21.964-10,33.002-10c12.357,0,24.728,10,36.998,10v7.57    C291,415.74,301.79,441.79,321,461z"/><path id="XMLID_719_" style="fill:#4D5788;" d="M501,31v330c0,11.05-8.95,20-20,20c-47.952,0-401.972,0-450,0    c-11.05,0-20-8.95-20-20V31c0-11.05,8.95-20,20-20h450C492.05,11,501,19.95,501,31z"/><path id="XMLID_140_" style="fill:#4D5788;" d="M361,461v40H151v-40C225.027,461,287.317,461,361,461z"/><path id="XMLID_716_" style="fill:#7A9FF1;" d="M461,51v290H51c0-15.563,0-274.135,0-290H461z"/><path id="XMLID_138_" style="fill:#C8DAF0;" d="M226,91H126v170l130,40l10-105l-10-75C256,104.43,242.57,91,226,91z"/><path id="XMLID_137_" style="fill:#BACEE2;" d="M286,91c-16.57,0-30,13.43-30,30v180l130-40V91H286z"/><path id="XMLID_136_" style="fill:#AAC1D3;" d="M386,261v40H256c0-22.09,18.19-40,40.62-40H386z"/><path id="XMLID_135_" style="fill:#BACEE2;" d="M256,301H126v-40h89.38C237.81,261,256,278.91,256,301z"/><g id="XMLID_691_"><path id="XMLID_707_" d="M481,1H31C14.458,1,1,14.458,1,31v330c0,16.542,13.458,30,30,30h179.954     c-0.445,13.411-3.806,37.827-24.218,60H151c-5.522,0-10,4.478-10,10v40c0,5.522,4.478,10,10,10h210c5.522,0,10-4.478,10-10v-40     c0-5.522-4.478-10-10-10h-35.737c-20.416-22.176-23.792-46.595-24.232-60H481c16.542,0,30-13.458,30-30V31     C511,14.458,497.542,1,481,1z M351,491H161v-20h190V491z M299.864,451h-87.709c15.8-23.51,18.466-47.04,18.816-60h50.076     C281.427,403.976,284.136,427.544,299.864,451z M491,361c0,5.514-4.486,10-10,10H31c-5.514,0-10-4.486-10-10V31     c0-5.514,4.486-10,10-10h450c5.514,0,10,4.486,10,10V361z"/><path id="XMLID_704_" d="M461,41H51c-5.522,0-10,4.477-10,10v290c0,5.522,4.478,10,10,10h410c5.522,0,10-4.478,10-10V51     C471,45.477,466.522,41,461,41z M451,331H61V61h390V331z"/><path id="XMLID_698_" d="M126,311c7.337,0,252.672,0,260,0c5.522,0,10-4.478,10-10c0-3.538,0-202.22,0-210     c0-5.523-4.478-10-10-10H286c-11.938,0-22.665,5.264-30,13.585C248.665,86.264,237.938,81,226,81H126c-5.522,0-10,4.477-10,10     c0,7.682,0,206.462,0,210C116,306.522,120.478,311,126,311z M136,291v-20h79.375c13.31,0,24.662,8.359,28.876,20H136z M376,291     H267.749c4.214-11.641,15.566-20,28.876-20H376V291z M286,101h90v150h-79.375c-11.502,0-22.115,3.815-30.625,10.221V121     C266,109.972,274.972,101,286,101z M226,101c11.028,0,20,8.972,20,20v140.221C237.49,254.815,226.877,251,215.375,251H136V101     H226z"/><path id="XMLID_123_" d="M295,146h51c5.522,0,10-4.477,10-10s-4.478-10-10-10h-51c-5.522,0-10,4.477-10,10S289.478,146,295,146z"/><path id="XMLID_122_" d="M347,166h-51c-5.522,0-10,4.477-10,10s4.478,10,10,10h51c5.522,0,10-4.477,10-10S352.522,166,347,166z"/><path id="XMLID_121_" d="M347,206h-51c-5.522,0-10,4.477-10,10s4.478,10,10,10h51c5.522,0,10-4.477,10-10S352.522,206,347,206z"/><path id="XMLID_120_" d="M164,146h51c5.522,0,10-4.477,10-10s-4.478-10-10-10h-51c-5.522,0-10,4.477-10,10S158.478,146,164,146z"/><path id="XMLID_119_" d="M216,166h-51c-5.522,0-10,4.477-10,10s4.478,10,10,10h51c5.522,0,10-4.477,10-10S221.522,166,216,166z"/><path id="XMLID_118_" d="M216,206h-51c-5.522,0-10,4.477-10,10s4.478,10,10,10h51c5.522,0,10-4.477,10-10S221.522,206,216,206z"/></g></g></g><g id="Layer_1"/></svg>